<svg xmlns="http://www.w3.org/2000/svg" width="600" height="160" viewBox="0 0 600 160" fill="none">
  <title>Papa D Labs logo light</title>
  <desc>Light logo for dark backgrounds. White text with the original PD icon reconstructed from the approved reference.</desc>

  <!-- PD icon -->
  <path d="M53.0,139.5 L51.0,138.5 L48.0,138.5 L46.0,137.5 L43.5,137.0 L41.5,136.0 L40.0,134.5 L38.0,133.5 L36.0,132.5 L34.5,131.0 L33.5,129.0 L32.5,127.0 L31.0,125.5 L30.5,123.0 L29.5,121.0 L29.0,118.5 L29.0,116.5 L29.5,114.0 L29.5,111.0 L29.5,108.0 L29.5,105.0 L29.5,102.0 L29.5,99.0 L29.5,96.0 L29.5,93.0 L29.5,90.0 L29.5,87.0 L29.5,84.0 L28.5,82.0 L28.5,79.0 L28.5,76.0 L29.5,74.0 L29.5,71.0 L29.5,68.0 L28.5,66.0 L28.5,63.0 L28.5,60.0 L28.5,57.0 L28.5,54.0 L29.5,52.0 L28.5,50.0 L28.5,47.0 L28.5,44.0 L28.5,41.0 L29.5,39.0 L30.5,37.0 L30.5,34.0 L32.5,33.0 L33.5,31.0 L34.5,29.0 L36.0,27.5 L38.0,26.5 L39.5,25.0 L41.5,24.0 L43.0,22.5 L45.0,21.5 L48.0,21.5 L50.0,20.5 L53.0,20.5 L56.0,20.5 L59.0,20.5 L62.0,20.5 L65.0,20.5 L68.0,20.5 L71.0,20.5 L74.0,20.5 L77.0,20.5 L80.0,20.5 L83.0,20.5 L86.0,20.5 L89.0,20.5 L92.0,20.5 L95.0,20.5 L98.0,20.5 L101.0,20.5 L104.0,20.5 L107.0,20.5 L110.0,20.5 L113.0,20.5 L116.0,20.5 L119.0,20.5 L122.0,20.5 L125.0,20.5 L128.0,20.5 L131.0,20.5 L134.0,20.5 L137.0,20.5 L140.0,20.5 L143.0,20.5 L146.0,20.5 L148.5,21.0 L151.0,21.5 L153.0,22.5 L155.5,23.0 L156.5,25.0 L159.0,25.5 L160.5,27.0 L161.5,29.0 L162.5,31.0 L164.5,32.0 L165.5,34.0 L165.5,37.0 L166.5,39.0 L166.5,42.0 L166.5,45.0 L166.5,48.0 L166.5,51.0 L166.5,54.0 L166.5,57.0 L166.5,60.0 L166.5,63.0 L166.5,66.0 L166.5,69.0 L166.5,72.0 L166.5,75.0 L166.5,78.0 L166.5,81.0 L166.5,84.0 L166.5,87.0 L166.5,90.0 L166.5,93.0 L166.5,96.0 L166.5,99.0 L166.5,102.0 L166.5,105.0 L166.5,108.0 L166.5,111.0 L166.5,114.0 L166.5,117.0 L166.5,120.0 L165.5,122.0 L165.5,125.0 L164.5,127.0 L162.5,128.0 L161.5,130.0 L160.5,132.0 L159.0,133.5 L156.5,134.0 L155.5,136.0 L153.0,136.5 L151.0,137.5 L149.0,138.5 L146.0,138.5 L143.0,138.5 L140.0,138.5 L137.0,138.5 L134.0,138.5 L131.0,138.5 L128.0,138.5 L125.0,138.5 L122.0,138.5 L119.0,138.5 L116.0,138.5 L113.0,138.5 L110.0,138.5 L107.0,138.5 L104.0,138.5 L101.0,138.5 L98.0,138.5 L95.0,138.5 L92.0,138.5 L89.0,138.5 L86.0,138.5 L83.0,138.5 L80.0,138.5 L77.0,138.5 L74.0,138.5 L71.0,138.5 L68.0,138.5 L65.0,138.5 L62.0,138.5 L59.0,138.5 L56.0,138.5 L53.5,139.0 L53.0,139.5 Z M113.5,114.0 L115.0,112.5 L118.0,112.5 L120.0,111.5 L122.5,111.0 L124.5,110.0 L127.0,109.5 L128.5,108.0 L130.5,107.0 L132.0,105.5 L133.5,104.0 L135.0,102.5 L136.5,101.0 L137.0,98.5 L139.0,97.5 L140.0,95.5 L140.5,93.0 L141.5,91.0 L142.5,89.0 L142.5,86.0 L142.5,83.0 L144.0,81.5 L143.5,80.0 L144.0,78.5 L142.5,77.0 L142.5,74.0 L142.5,71.0 L141.5,69.0 L140.5,67.0 L140.0,64.5 L139.0,62.5 L137.5,61.0 L136.5,59.0 L135.0,57.5 L133.5,56.0 L132.0,54.5 L130.0,53.5 L129.0,51.5 L127.0,50.5 L125.0,49.5 L123.0,48.5 L120.0,48.5 L118.0,47.5 L115.5,47.0 L113.0,46.5 L110.0,46.5 L107.0,46.5 L104.0,46.5 L101.0,46.5 L98.0,46.5 L95.0,46.5 L93.0,45.5 L93.5,47.0 L95.5,48.0 L97.0,49.5 L98.5,51.0 L100.0,52.5 L101.0,54.5 L104.0,54.5 L107.0,54.5 L110.0,54.5 L111.5,56.0 L114.0,56.5 L116.5,57.0 L119.0,57.5 L121.0,58.5 L122.5,60.0 L124.5,61.0 L126.0,62.5 L127.5,64.0 L128.5,66.0 L130.0,67.5 L131.0,69.5 L132.0,71.5 L132.5,74.0 L132.5,77.0 L133.5,79.0 L133.5,82.0 L132.5,84.0 L132.5,87.0 L131.5,89.0 L130.5,91.0 L129.5,93.0 L128.0,94.5 L126.5,96.0 L125.0,97.5 L123.5,99.0 L122.0,100.5 L120.0,101.5 L117.5,102.0 L115.0,102.5 L113.0,103.5 L111.0,104.5 L108.0,104.5 L105.0,104.5 L102.0,104.5 L99.0,104.5 L96.0,104.5 L93.0,104.5 L90.0,104.5 L87.0,104.5 L84.0,104.5 L82.5,106.0 L82.5,109.0 L82.5,112.0 L83.0,114.5 L86.0,114.5 L89.0,114.5 L92.0,114.5 L95.0,114.5 L98.0,114.5 L101.0,114.5 L104.0,114.5 L107.0,114.5 L110.0,114.5 L113.0,114.5 L113.5,114.0 Z M64.5,114.0 L64.5,111.0 L64.5,108.0 L64.5,105.0 L64.5,102.0 L64.5,99.0 L64.5,96.0 L66.0,94.5 L69.0,94.5 L72.0,94.5 L75.0,94.5 L78.0,94.5 L80.0,93.5 L81.5,94.0 L83.0,92.5 L86.0,92.5 L88.0,91.5 L90.0,90.5 L92.0,89.5 L93.5,88.0 L95.0,86.5 L96.5,85.0 L97.5,83.0 L99.0,81.5 L100.5,80.0 L101.0,77.5 L101.5,75.0 L102.0,72.5 L102.5,70.0 L102.5,67.0 L101.5,65.0 L101.0,62.5 L100.5,60.0 L99.0,58.5 L98.0,56.5 L96.5,55.0 L95.0,53.5 L93.5,52.0 L92.0,50.5 L90.0,49.5 L88.0,48.5 L86.0,47.5 L83.5,47.0 L81.0,46.5 L78.0,46.5 L75.0,46.5 L72.0,46.5 L69.0,46.5 L66.0,46.5 L63.0,46.5 L60.0,46.5 L57.0,46.5 L54.5,47.0 L54.5,50.0 L54.5,53.0 L54.5,56.0 L54.5,59.0 L54.5,62.0 L54.5,65.0 L54.5,68.0 L54.5,71.0 L54.5,74.0 L54.5,77.0 L54.5,80.0 L54.5,83.0 L54.5,86.0 L54.5,89.0 L54.5,92.0 L54.5,95.0 L54.5,98.0 L54.5,101.0 L54.5,104.0 L54.5,107.0 L54.5,110.0 L54.5,113.0 L56.0,114.5 L59.0,114.5 L62.0,114.5 L64.5,114.0 Z M82.0,83.5 L79.0,83.5 L76.0,83.5 L73.0,83.5 L70.0,83.5 L67.0,83.5 L64.5,83.0 L64.5,80.0 L64.5,77.0 L64.5,74.0 L64.5,71.0 L64.5,68.0 L64.5,65.0 L64.5,62.0 L64.5,59.0 L65.0,56.5 L68.0,56.5 L71.0,56.5 L74.0,56.5 L77.0,56.5 L80.0,56.5 L82.5,57.0 L85.0,57.5 L87.0,58.5 L88.5,60.0 L89.5,62.0 L91.0,63.5 L91.0,65.5 L92.0,66.5 L92.5,69.0 L92.5,72.0 L91.0,73.5 L91.5,75.0 L90.0,76.5 L89.5,79.0 L88.0,80.5 L86.0,81.5 L84.0,82.5 L82.0,83.5 Z" fill="#FFFFFF" fill-rule="evenodd"/>

  <!-- Wordmark -->
  <text x="194" y="103"
        fill="#FFFFFF"
        font-family="Inter, Helvetica, Arial, sans-serif"
        font-size="58"
        letter-spacing="0"
        dominant-baseline="alphabetic">
    <tspan font-weight="600">Papa D</tspan>
    <tspan dx="10" font-weight="400">Labs</tspan>
  </text>
</svg>
